<svg width="35" height="36" viewBox="0 0 35 36" fill="none" xmlns="http://www.w3.org/2000/svg">
<g filter="url(#filter0_b_39_753)">
<rect width="35" height="36" rx="17.5" fill="white" fill-opacity="0.1"/>
<path d="M27.2223 11.9006C26.5072 12.213 25.7291 12.4379 24.9275 12.5255C25.7597 12.0247 26.3829 11.2336 26.6801 10.3006C25.8993 10.7711 25.0438 11.101 24.1517 11.2757C23.7789 10.872 23.3279 10.5504 22.827 10.3309C22.3261 10.1114 21.7859 9.99879 21.2401 10C19.0318 10 17.2559 11.813 17.2559 14.0379C17.2559 14.3503 17.2932 14.6627 17.354 14.9633C14.0474 14.7882 11.0984 13.1882 9.13785 10.7385C8.78061 11.3565 8.5934 12.0602 8.59571 12.7763C8.59571 14.1775 9.29908 15.413 10.3717 16.1397C9.73958 16.1144 9.12229 15.9385 8.57 15.626V15.6757C8.57 17.6379 9.93936 19.2639 11.7644 19.6379C11.4217 19.728 11.0692 19.7742 10.7152 19.7752C10.4558 19.7752 10.2104 19.7491 9.96273 19.7136C10.4675 21.3136 11.9373 22.4757 13.6876 22.5136C12.3182 23.6 10.603 24.2391 8.74059 24.2391C8.40643 24.2391 8.09797 24.2272 7.77783 24.1894C9.54445 25.3373 11.6405 26 13.8979 26C21.2261 26 25.236 19.8509 25.236 14.5136C25.236 14.3385 25.236 14.1633 25.2243 13.9882C26.0001 13.413 26.6801 12.7006 27.2223 11.9006Z" fill="#A0A0A0"/>
</g>
<defs>
<filter id="filter0_b_39_753" x="-200" y="-200" width="435" height="436" filterUnits="userSpaceOnUse" color-interpolation-filters="sRGB">
<feFlood flood-opacity="0" result="BackgroundImageFix"/>
<feGaussianBlur in="BackgroundImageFix" stdDeviation="100"/>
<feComposite in2="SourceAlpha" operator="in" result="effect1_backgroundBlur_39_753"/>
<feBlend mode="normal" in="SourceGraphic" in2="effect1_backgroundBlur_39_753" result="shape"/>
</filter>
</defs>
</svg>
